name: Hershey-Az Regular 28
spacing: proportional
bounding-box: 10 11
ascent: 21
descent: 7
converter: monobit v0.34
source-name: hershey-az.jhf
source-format: hurt
history: load -format=hurt

0x01:
    ....@....
    ....@....
    ...@.@...
    ...@.@...
    ..@...@..
    ..@...@..
    .@@@@@@@.
    .@.....@.
    @.......@
    @.......@

    left-bearing: 1
    shift-up: 5
    path:
        m 5 9
        m 0 5
        l -4 -9
        m 4 9
        l 4 -9
        m -6 3
        l 4 0


0x02:
    @@@@@@.
    @.....@
    @.....@
    @....@@
    @@@@@@.
    @.....@
    @.....@
    @.....@
    @....@@
    @@@@@..

    left-bearing: 2
    right-bearing: 1
    shift-up: 5
    path:
        m 5 9
        m -3 5
        l 0 -9
        m 0 9
        l 4 0
        l 2 -1
        l 0 -2
        l -2 -1
        m -4 0
        l 4 0
        l 2 -1
        l 0 -3
        l -2 -1
        l -4 0


0x03:
    ..@@@@..
    .@....@@
    .@......
    @.......
    @.......
    @.......
    @.......
    @.......
    .@@....@
    ...@@@@.

    left-bearing: 2
    right-bearing: 1
    shift-up: 5
    path:
        m 5 9
        m 4 4
        l -2 1
        l -2 0
        l -2 -1
        l -1 -2
        l 0 -3
        l 1 -2
        l 2 -1
        l 2 0
        l 2 1


0x04:
    @@@@@..
    @....@.
    @....@.
    @.....@
    @.....@
    @.....@
    @.....@
    @.....@
    @...@@.
    @@@@...

    left-bearing: 2
    right-bearing: 1
    shift-up: 5
    path:
        m 5 9
        m -3 5
        l 0 -9
        m 0 9
        l 3 0
        l 2 -1
        l 1 -2
        l 0 -3
        l -1 -2
        l -2 -1
        l -3 0


0x05:
    @@@@@@@
    @......
    @......
    @......
    @@@@@..
    @......
    @......
    @......
    @......
    @@@@@@@

    left-bearing: 2
    right-bearing: 1
    shift-up: 5
    path:
        m 5 9
        m -3 5
        l 0 -9
        m 0 9
        l 6 0
        m -6 -4
        l 4 0
        m -4 -5
        l 6 0


0x06:
    @@@@@@@
    @......
    @......
    @......
    @@@@@..
    @......
    @......
    @......
    @......
    @......

    left-bearing: 2
    shift-up: 5
    path:
        m 5 9
        m -3 5
        l 0 -9
        m 0 9
        l 6 0
        m -6 -4
        l 4 0


0x07:
    ..@@@@..
    .@....@@
    .@......
    @.......
    @.......
    @...@@@@
    @......@
    @......@
    .@@....@
    ...@@@@.

    left-bearing: 2
    right-bearing: 1
    shift-up: 5
    path:
        m 5 9
        m 4 4
        l -2 1
        l -2 0
        l -2 -1
        l -1 -2
        l 0 -3
        l 1 -2
        l 2 -1
        l 2 0
        l 2 1
        l 0 3
        m -3 0
        l 3 0


0x08:
    @.....@
    @.....@
    @.....@
    @.....@
    @@@@@@@
    @.....@
    @.....@
    @.....@
    @.....@
    @.....@

    left-bearing: 2
    right-bearing: 1
    shift-up: 5
    path:
        m 5 9
        m -3 5
        l 0 -9
        m 6 9
        l 0 -9
        m -6 5
        l 6 0


0x09:
    @
    @
    @
    @
    @
    @
    @
    @
    @
    @

    left-bearing: 2
    right-bearing: 1
    shift-up: 5
    path:
        m 2 9
        m 0 5
        l 0 -9


0x0a:
    ....@
    ....@
    ....@
    ....@
    ....@
    ....@
    @...@
    @...@
    .@..@
    .@@@.

    left-bearing: 1
    right-bearing: 1
    shift-up: 5
    path:
        m 4 9
        m 1 5
        l 0 -7
        l -1 -2
        l -2 0
        l -1 2
        l 0 1


0x0b:
    @.....@
    @....@.
    @...@..
    @..@...
    @.@....
    @@.@...
    @...@..
    @...@..
    @....@.
    @.....@

    left-bearing: 2
    right-bearing: 1
    shift-up: 5
    path:
        m 5 9
        m -3 5
        l 0 -9
        m 6 9
        l -6 -6
        m 2 2
        l 4 -5


0x0c:
    @......
    @......
    @......
    @......
    @......
    @......
    @......
    @......
    @......
    @@@@@@@

    left-bearing: 2
    shift-up: 5
    path:
        m 5 9
        m -3 5
        l 0 -9
        m 0 0
        l 6 0


0x0d:
    @.......@
    @.......@
    @@.....@@
    @@.....@@
    @.@...@.@
    @.@...@.@
    @..@.@..@
    @..@.@..@
    @...@...@
    @...@...@

    left-bearing: 2
    right-bearing: 1
    shift-up: 5
    path:
        m 6 9
        m -4 5
        l 0 -9
        m 0 9
        l 4 -9
        m 4 9
        l -4 -9
        m 4 9
        l 0 -9


0x0e:
    @.....@
    @@....@
    @@....@
    @.@...@
    @..@..@
    @..@..@
    @...@.@
    @....@@
    @....@@
    @.....@

    left-bearing: 2
    right-bearing: 1
    shift-up: 5
    path:
        m 5 9
        m -3 5
        l 0 -9
        m 0 9
        l 6 -9
        m 0 9
        l 0 -9


0x0f:
    ..@@@...
    .@...@@.
    .@.....@
    @......@
    @......@
    @......@
    @......@
    @.....@.
    .@@...@.
    ...@@@..

    left-bearing: 2
    right-bearing: 1
    shift-up: 5
    path:
        m 5 9
        m 0 5
        l -2 -1
        l -1 -2
        l 0 -3
        l 1 -2
        l 2 -1
        l 1 0
        l 2 1
        l 1 2
        l 0 3
        l -1 2
        l -2 1
        l -1 0


0x10:
    @@@@@@.
    @.....@
    @.....@
    @.....@
    @....@@
    @@@@@..
    @......
    @......
    @......
    @......

    left-bearing: 2
    right-bearing: 1
    shift-up: 5
    path:
        m 5 9
        m -3 5
        l 0 -9
        m 0 9
        l 4 0
        l 2 -1
        l 0 -3
        l -2 -1
        l -4 0


0x11:
    ..@@@...
    .@...@@.
    .@.....@
    @......@
    @......@
    @......@
    @......@
    @...@.@.
    .@@..@@.
    ...@@@@.
    .......@

    left-bearing: 2
    right-bearing: 1
    shift-up: 4
    path:
        m 5 9
        m 0 5
        l -2 -1
        l -1 -2
        l 0 -3
        l 1 -2
        l 2 -1
        l 1 0
        l 2 1
        l 1 2
        l 0 3
        l -1 2
        l -2 1
        l -1 0
        m 1 -7
        l 3 -3


0x12:
    @@@@@@.
    @.....@
    @.....@
    @.....@
    @....@@
    @@@@@..
    @...@..
    @...@..
    @....@.
    @.....@

    left-bearing: 2
    right-bearing: 1
    shift-up: 5
    path:
        m 5 9
        m -3 5
        l 0 -9
        m 0 9
        l 4 0
        l 2 -1
        l 0 -3
        l -2 -1
        l -4 0
        m 3 0
        l 3 -4


0x13:
    .@@@@..
    @....@@
    @......
    .@@....
    ...@@..
    .....@.
    ......@
    ......@
    @....@@
    .@@@@..

    left-bearing: 2
    right-bearing: 1
    shift-up: 5
    path:
        m 5 9
        m 3 4
        l -2 1
        l -2 0
        l -2 -1
        l 0 -1
        l 1 -1
        l 4 -2
        l 1 -1
        l 0 -2
        l -2 -1
        l -2 0
        l -2 1


0x14:
    @@@@@@@@@
    ....@....
    ....@....
    ....@....
    ....@....
    ....@....
    ....@....
    ....@....
    ....@....
    ....@....

    left-bearing: 1
    shift-up: 5
    path:
        m 5 9
        m 0 5
        l 0 -9
        m -4 9
        l 8 0


0x15:
    @......@
    @......@
    @......@
    @......@
    @......@
    @......@
    @......@
    @.....@.
    .@@...@.
    ...@@@..

    left-bearing: 2
    right-bearing: 1
    shift-up: 5
    path:
        m 5 9
        m -3 5
        l 0 -6
        l 1 -2
        l 2 -1
        l 1 0
        l 2 1
        l 1 2
        l 0 6


0x16:
    @.......@
    @.......@
    .@.....@.
    .@.....@.
    ..@...@..
    ..@...@..
    ...@.@...
    ...@.@...
    ....@....
    ....@....

    left-bearing: 1
    shift-up: 5
    path:
        m 5 9
        m -4 5
        l 4 -9
        m 4 9
        l -4 -9


0x17:
    @...@...@
    @...@...@
    @...@...@
    .@.@.@.@.
    .@.@.@.@.
    .@.@.@.@.
    .@.@.@.@.
    ..@...@..
    ..@...@..
    ..@...@..

    left-bearing: 2
    right-bearing: 1
    shift-up: 5
    path:
        m 6 9
        m -4 5
        l 2 -9
        m 2 9
        l -2 -9
        m 2 9
        l 2 -9
        m 2 9
        l -2 -9


0x18:
    @.....@
    .@...@.
    .@...@.
    ..@.@..
    ...@...
    ...@...
    ..@.@..
    .@...@.
    .@...@.
    @.....@

    left-bearing: 2
    right-bearing: 1
    shift-up: 5
    path:
        m 5 9
        m -3 5
        l 6 -9
        m 0 9
        l -6 -9


0x19:
    @.......@
    .@.....@.
    ..@...@..
    ...@.@...
    ....@....
    ....@....
    ....@....
    ....@....
    ....@....
    ....@....

    left-bearing: 1
    shift-up: 5
    path:
        m 5 9
        m -4 5
        l 4 -4
        l 0 -5
        m 4 9
        l -4 -4


0x1a:
    @@@@@@@
    .....@.
    .....@.
    ....@..
    ...@...
    ...@...
    ..@....
    .@.....
    .@.....
    @@@@@@@

    left-bearing: 2
    right-bearing: 1
    shift-up: 5
    path:
        m 5 9
        m 3 5
        l -6 -9
        m 0 9
        l 6 0
        m -6 -9
        l 6 0


